<?xml version="1.0" encoding="utf-8"?>
<!-- Generator: Adobe Illustrator 24.0.0, SVG Export Plug-In . SVG Version: 6.00 Build 0)  -->
<svg version="1.1" id="Layer_1" xmlns="http://www.w3.org/2000/svg" xmlns:xlink="http://www.w3.org/1999/xlink" x="0px" y="0px"
	 viewBox="0 0 804.8 296.5" style="enable-background:new 0 0 804.8 296.5;" xml:space="preserve">
<style type="text/css">
	.st0{fill:none;}
	.st1{fill:#FFFFFF;}
</style>
<g id="Layer_2_1_">
</g>
<g id="Layer_1_1_">
	<path class="st0" d="M358.8,113.4c-4.4-4.6-9.7-8.2-16-10.9c-6.3-2.6-13-3.9-20.3-3.9c-15.3,0-27.8,5.1-37.6,15.2
		c-9.8,10.1-14.7,22.9-14.7,38.4c0,14.2,5.1,26.1,15.2,35.9c10.2,9.8,22.3,14.6,36.5,14.6c9.8,0,18.7-2.3,26.5-6.9
		c7.8-4.6,13.8-10.8,18.1-18.8c4.3-8,6.4-16.9,6.4-26.7c0-7.4-1.2-14.2-3.7-20.6C366.7,123.5,363.2,118.1,358.8,113.4z"/>
	<path class="st0" d="M737.2,105.7c-7.9-4.7-16.5-7-25.8-7c-6.3,0-12.7,1.4-19.3,4.3c-6.6,2.9-12.2,6.8-16.7,11.7
		c-9.6,9.8-14.5,21.9-14.5,36.4c0,9.1,2.2,17.7,6.7,25.8c4.5,8.1,10.6,14.4,18.3,19c7.7,4.6,16.2,6.9,25.5,6.9
		c9.7,0,18.5-2.3,26.3-6.9c7.8-4.6,13.9-10.9,18.3-18.9c4.4-8,6.6-16.7,6.6-26s-2.3-18.1-6.8-26.2
		C751.3,116.7,745.1,110.3,737.2,105.7z"/>
	<path class="st0" d="M541.7,105.8c-7.7-4.8-16.2-7.2-25.6-7.2c-9.6,0-18.4,2.3-26.2,6.9c-7.8,4.6-13.9,10.9-18.4,18.9
		c-4.5,8-6.7,16.7-6.7,26.2c0,16.1,5.4,29.1,16.3,38.8c4.7,4.1,10.1,7.3,16,9.7c6,2.4,11.8,3.5,17.4,3.5c9.7,0,18.5-2.3,26.4-7
		c8-4.7,14.2-11,18.6-19c4.5-8,6.7-16.8,6.7-26.3c0-8.9-2.2-17.4-6.5-25.4C555.4,117,549.4,110.6,541.7,105.8z"/>
	<path class="st1" d="M228.2,143.5V51.3C228.2,26.3,208,6,183,6L45.3,28.7C20.3,28.7,0,48.9,0,74v137.7c0,25,20.3,45.3,45.3,45.3
		H183c25,0,45.3-20.3,45.3-45.3v-53.9c-0.1-2.3-0.2-4.7-0.2-7.1C228,148.3,228.1,145.9,228.2,143.5z M175,227.2
		c-16,11-35.2,16.5-57.8,16.5c-32.5,0-62.5-11.7-90-35.1l29.4-29.7c18.2,19.5,39.2,29.3,62.9,29.3c9.1,0,17.5-1.9,25.3-5.8
		c9.7-4.7,14.5-11.1,14.5-19.4c0-12.1-8.8-19.8-26.4-23.1l-24.3-4.6c-21.7-4.1-37.9-9.4-48.3-15.7c-15.7-9.6-23.5-23.4-23.5-41.3
		c0-20.4,8.3-36.6,24.8-48.7c14.6-11,32.5-16.5,53.7-16.5c27,0,53.4,9.2,79.3,27.7L170,91c-17.7-14.9-35.6-22.3-53.9-22.3
		c-8.8,0-16.8,1.9-24,5.8c-8.6,4.7-12.8,11.1-12.8,19.4c0,10.7,8.8,17.7,26.4,21.1l43.3,8.2c35.2,6.6,52.9,24.4,52.9,53.3
		C201.9,197.9,192.9,214.8,175,227.2z"/>
	<path class="st1" d="M374.2,87.9c-6.9-9.9-15.4-17.4-25.5-22.5c-10.1-5.1-21.2-7.7-33.2-7.7c-12.8,0-24.7,2.5-35.5,7.4
		c-10.8,4.9-20.7,12.5-29.5,22.8c-5.5,6.4-9.9,12.8-13.2,19.2c-3.2,6.4-5.6,13.4-7.1,20.8c-1,5.1-1.7,10.4-2,15.7v14.3
		c1.3,21.9,8.5,40.8,21.7,56.6c7.9,9.3,17.4,16.6,28.3,21.7c11,5.1,23,7.7,36.1,7.7c11.1,0,22.2-2.7,33.2-8
		c11-5.3,19.7-12.5,26.1-21.4h0.6v23.7h38.7V63.2h-38.7L374.2,87.9L374.2,87.9z M366.4,177.1c-4.2,8-10.3,14.2-18.1,18.8
		c-7.8,4.6-16.6,6.9-26.5,6.9c-14.2,0-26.3-4.9-36.5-14.6c-10.2-9.8-15.2-21.7-15.2-35.9c0-15.5,4.9-28.3,14.7-38.4
		c9.8-10.1,22.3-15.2,37.6-15.2c7.3,0,14.1,1.3,20.3,3.9c6.3,2.6,11.6,6.2,16,10.9c4.4,4.6,7.8,10.1,10.3,16.4
		c2.5,6.3,3.7,13.2,3.7,20.6C372.8,160.3,370.7,169.2,366.4,177.1z"/>
	<path class="st1" d="M597.1,104.3C593.3,97.1,589,91,584,86c-8.7-10-18.2-17.2-28.4-21.6s-21.9-6.7-35-6.7
		c-24.7,0-43.3,9.4-56.1,28.3h-0.8V63.2h-38.4v233.2h41.9v-77.3h0.6c12.8,16.4,30.4,24.6,52.7,24.6c12.3,0,23.9-2.5,34.7-7.4
		c10.8-4.9,20.3-11.8,28.3-20.6c8-8.8,14.1-18.8,18.3-30c4.2-11.2,6.3-22.9,6.3-35.1c0-8-0.9-16-2.7-23.9
		C603.7,118.9,600.9,111.4,597.1,104.3z M559.6,176.8c-4.5,8-10.7,14.4-18.6,19c-8,4.7-16.8,7-26.4,7c-5.6,0-11.5-1.2-17.4-3.5
		c-5.9-2.4-11.3-5.6-16-9.7c-10.9-9.8-16.3-22.7-16.3-38.8c0-9.5,2.2-18.2,6.7-26.2c4.5-8,10.6-14.3,18.4-18.9
		c7.8-4.6,16.5-6.9,26.2-6.9c9.3,0,17.9,2.4,25.6,7.2c7.7,4.8,13.7,11.2,18.1,19.2c4.4,8,6.5,16.5,6.5,25.4
		C566.3,160,564.1,168.7,559.6,176.8z"/>
	<path class="st1" d="M797.9,115.1c-4.6-11.3-11.1-21.2-19.5-29.8C770,76.6,760.2,69.9,749,65c-11.2-4.9-23.1-7.3-35.9-7.3
		c-13.2,0-25.4,2.4-36.8,7.2c-11.4,4.8-21.4,11.4-30.1,19.9c-8.6,8.5-15.4,18.4-20.3,29.7c-4.9,11.4-7.3,23.5-7.3,36.6
		c0,16.5,4.2,31.9,12.6,46.2c8.4,14.3,19.7,25.6,33.9,34c14.2,8.4,29.6,12.5,46.2,12.5c12.5,0,24.5-2.3,35.8-7
		c11.4-4.7,21.4-11.4,30.2-20.1c8.8-8.7,15.6-18.7,20.3-29.9c4.7-11.2,7.1-23.1,7.1-35.7C804.8,138.3,802.5,126.3,797.9,115.1z
		 M756,177.1c-4.4,8-10.5,14.3-18.3,18.9c-7.8,4.6-16.6,6.9-26.3,6.9c-9.2,0-17.7-2.3-25.5-6.9c-7.7-4.6-13.8-11-18.3-19
		c-4.5-8.1-6.7-16.7-6.7-25.8c0-14.5,4.8-26.6,14.5-36.4c4.5-4.9,10.1-8.8,16.7-11.7c6.6-2.9,13.1-4.3,19.3-4.3
		c9.3,0,17.9,2.3,25.8,7c7.9,4.7,14.1,11.1,18.6,19.2c4.5,8.1,6.8,16.8,6.8,26.2C762.6,160.4,760.4,169.1,756,177.1z"/>
</g>
</svg>
